<?xml version="1.0" standalone="no"?>
<!DOCTYPE svg PUBLIC "-//W3C//DTD SVG 20010904//EN"
 "http://www.w3.org/TR/2001/REC-SVG-20010904/DTD/svg10.dtd">
<svg version="1.0" xmlns="http://www.w3.org/2000/svg"
 width="1500.000000pt" height="1500.000000pt" viewBox="0 0 1500.000000 1500.000000"
 preserveAspectRatio="xMidYMid meet">

<g transform="translate(0.000000,1500.000000) scale(0.100000,-0.100000)"
fill="#000000" stroke="none">
<path d="M6700 9518 c-437 -765 -803 -1407 -813 -1426 l-19 -35 24 7 c75 22
199 36 308 36 394 -1 726 -185 1205 -669 l119 -120 141 137 c403 395 672 567
1000 638 97 21 265 28 355 16 41 -6 76 -10 77 -8 2 2 -1591 2802 -1601 2813
-1 1 -359 -624 -796 -1389z"/>
<path d="M6105 7650 c-326 -50 -572 -353 -552 -681 17 -277 160 -490 390 -580
72 -28 97 -33 203 -37 292 -11 492 87 849 415 66 61 144 138 174 173 l54 62
-94 95 c-139 141 -314 299 -403 366 -92 67 -254 149 -341 171 -79 20 -205 27
-280 16z"/>
<path d="M8772 7650 c-151 -21 -330 -102 -487 -221 -109 -82 -302 -257 -388
-353 l-72 -79 170 -165 c345 -334 528 -450 766 -482 309 -42 606 146 705 446
26 79 29 103 29 214 0 140 -20 223 -78 335 -68 129 -218 246 -368 289 -70 20
-197 27 -277 16z"/>
<path d="M4359 5419 c-409 -716 -745 -1306 -747 -1310 -2 -5 1715 -9 3883 -9
2138 0 3885 4 3883 8 -17 42 -1453 2542 -1459 2542 -5 0 -9 -6 -9 -13 0 -6
-22 -58 -50 -114 -144 -293 -396 -501 -715 -590 -92 -25 -114 -27 -280 -27
-167 -1 -187 1 -285 28 -296 81 -500 217 -867 580 l-183 180 -82 -80 c-46 -44
-112 -109 -148 -143 -416 -405 -758 -574 -1160 -574 -139 0 -217 12 -335 50
-187 60 -362 179 -480 326 -76 95 -163 261 -190 362 -10 39 -21 74 -25 78 -4
4 -342 -578 -751 -1294z"/>
</g>
</svg>
